# xmcd
#
# Track frame offsets:
# 150
# 16442
# 28787
# 46220
# 59072
# 72657
# 84229
# 101406
# 114415
# 128092
#
# Disc length: 1868 seconds
#
#
# Revision: 0
# Processed by: cddbd v1.5.2PL0 Copyright (c) Steve Scherf et al.
# Submitted via: FreeRIP 2.944 
#
DISCID=84074a0a
DTITLE=Merle Haggard  - The Fightin' Side of Me
DYEAR=1900
DGENRE=country
TTITLE0=It's Not Love (But It's Not Bad)
TTITLE1=If We Makt It Through December
TTITLE2=I Think I'll Just Stay Here and Drink
TTITLE3=The Fightin' Side of Me
TTITLE4=The Farmer's Daughter
TTITLE5=From Graceland to the Promised Land
TTITLE6=Today I Started Loving You Again
TTITLE7=The Way I Am
TTITLE8=Cherokee Maiden
TTITLE9=Everybody's Had the Blues
EXTD=
EXTT0=
EXTT1=
EXTT2=
EXTT3=
EXTT4=
EXTT5=
EXTT6=
EXTT7=
EXTT8=
EXTT9=
PLAYORDER=
